<svg width="177" height="63" viewBox="0 0 177 63" fill="none" xmlns="http://www.w3.org/2000/svg">
<path d="M155.646 23.4492V38H152.58V23.4492H155.646ZM163.928 27.082V29.3672H161.857V34.6406C161.857 35.3503 162.202 35.7051 162.893 35.7051C163.01 35.7051 163.137 35.6953 163.273 35.6758C163.417 35.6562 163.54 35.6335 163.645 35.6074L164.123 37.873C163.479 38.0618 162.854 38.1562 162.248 38.1562C161.167 38.1562 160.327 37.8828 159.729 37.3359C159.136 36.7891 158.84 36.0241 158.84 35.041V29.3672H157.355V27.082H158.84V24.4844H161.857V27.082H163.928Z" fill="#FFDE59"/>
<g filter="url(#filter0_d_143_5)">
<circle cx="158" cy="31" r="13.5" stroke="#D3AD3C" stroke-width="3" shape-rendering="crispEdges"/>
</g>
<g filter="url(#filter1_d_143_5)">
<path d="M15.3428 43.376C13.3831 43.376 11.6969 42.9772 10.2842 42.1797C8.87142 41.3822 7.78337 40.2485 7.02002 38.7788C6.25667 37.2977 5.875 35.5488 5.875 33.5322C5.875 31.5726 6.25098 29.8522 7.00293 28.3711C7.76628 26.89 8.83724 25.7336 10.2158 24.9019C11.5944 24.0701 13.2179 23.6543 15.0864 23.6543C16.7726 23.6543 18.2936 24.0132 19.6494 24.731C21.0166 25.4487 22.099 26.5254 22.8965 27.9609C23.7054 29.3965 24.1099 31.1966 24.1099 33.3613V34.7969H11.0874C11.1444 36.2438 11.5659 37.3774 12.3521 38.1978C13.1382 39.0181 14.1636 39.4282 15.4282 39.4282C16.3055 39.4282 17.0575 39.2402 17.6841 38.8643C18.3221 38.4883 18.7778 37.9414 19.0513 37.2236L23.939 37.5483C23.563 39.3029 22.623 40.7157 21.1191 41.7866C19.6266 42.8462 17.7012 43.376 15.3428 43.376ZM11.1216 31.5327H19.0342C18.9089 30.325 18.5215 29.368 17.8721 28.6616C17.2227 27.9552 16.3112 27.6021 15.1377 27.6021C13.9528 27.6021 13.0129 27.9723 12.3179 28.7129C11.6343 29.4421 11.2355 30.382 11.1216 31.5327ZM43.4556 29.3452L38.6362 29.6357C38.4995 29.0319 38.1577 28.5135 37.6108 28.0806C37.0754 27.6362 36.3462 27.4141 35.4233 27.4141C34.603 27.4141 33.9137 27.585 33.3555 27.9268C32.7972 28.2686 32.5181 28.7243 32.5181 29.2939C32.5181 29.7497 32.7004 30.137 33.0649 30.4561C33.4295 30.7751 34.0505 31.0314 34.9277 31.2251L38.397 31.9087C42.0656 32.6379 43.8999 34.3582 43.8999 37.0698C43.8999 38.3345 43.5353 39.4396 42.8062 40.3853C42.077 41.3309 41.0744 42.0658 39.7983 42.5898C38.5223 43.1139 37.0583 43.376 35.4062 43.376C32.877 43.376 30.866 42.8519 29.3735 41.8037C27.881 40.7441 27.0037 39.3029 26.7417 37.48L31.937 37.2065C32.2902 38.7788 33.4523 39.5649 35.4233 39.5649C36.3462 39.5649 37.0924 39.3826 37.6621 39.0181C38.2318 38.6535 38.5166 38.1921 38.5166 37.6338C38.5166 36.6882 37.702 36.0501 36.0728 35.7197L32.7744 35.0361C29.0944 34.2956 27.2544 32.484 27.2544 29.6016C27.2544 27.7559 27.9893 26.3032 29.459 25.2437C30.9401 24.1841 32.8997 23.6543 35.3379 23.6543C37.7533 23.6543 39.6559 24.167 41.0459 25.1924C42.4359 26.2064 43.2391 27.5907 43.4556 29.3452ZM55.9482 43.376C53.9886 43.376 52.3024 42.9772 50.8896 42.1797C49.4769 41.3822 48.3888 40.2485 47.6255 38.7788C46.8621 37.2977 46.4805 35.5488 46.4805 33.5322C46.4805 31.5726 46.8564 29.8522 47.6084 28.3711C48.3717 26.89 49.4427 25.7336 50.8213 24.9019C52.1999 24.0701 53.8234 23.6543 55.6919 23.6543C57.3781 23.6543 58.8991 24.0132 60.2549 24.731C61.6221 25.4487 62.7044 26.5254 63.502 27.9609C64.3109 29.3965 64.7153 31.1966 64.7153 33.3613V34.7969H51.6929C51.7498 36.2438 52.1714 37.3774 52.9575 38.1978C53.7437 39.0181 54.769 39.4282 56.0337 39.4282C56.911 39.4282 57.6629 39.2402 58.2896 38.8643C58.9276 38.4883 59.3833 37.9414 59.6567 37.2236L64.5444 37.5483C64.1685 39.3029 63.2285 40.7157 61.7246 41.7866C60.2321 42.8462 58.3066 43.376 55.9482 43.376ZM51.7271 31.5327H59.6396C59.5143 30.325 59.127 29.368 58.4775 28.6616C57.8281 27.9552 56.9167 27.6021 55.7432 27.6021C54.5583 27.6021 53.6183 27.9723 52.9233 28.7129C52.2397 29.4421 51.841 30.382 51.7271 31.5327ZM73.4995 31.96V43H68.2017V23.8936H73.4141V27.2944H73.6021C74.035 26.1779 74.7243 25.2949 75.6699 24.6455C76.6156 23.9847 77.7948 23.6543 79.2075 23.6543C81.2013 23.6543 82.7964 24.298 83.9927 25.5854C85.2004 26.8615 85.8042 28.616 85.8042 30.8491V43H80.5063V31.7891C80.5063 30.6156 80.2044 29.6984 79.6006 29.0376C79.0081 28.3768 78.1821 28.0464 77.1226 28.0464C76.0516 28.0464 75.18 28.3939 74.5078 29.0889C73.8356 29.7725 73.4995 30.7295 73.4995 31.96ZM98.6558 43.376C96.6961 43.376 95.0156 42.9601 93.6143 42.1284C92.2129 41.2967 91.1362 40.1403 90.3843 38.6592C89.6437 37.1781 89.2734 35.4691 89.2734 33.5322C89.2734 31.5726 89.6494 29.8522 90.4014 28.3711C91.1647 26.89 92.2471 25.7336 93.6484 24.9019C95.0498 24.0701 96.7132 23.6543 98.6387 23.6543C100.302 23.6543 101.76 23.9562 103.014 24.5601C104.267 25.1639 105.258 26.0127 105.987 27.1064C106.716 28.2002 107.115 29.4876 107.184 30.9688H102.193C102.045 30.0231 101.675 29.2598 101.083 28.6787C100.49 28.0863 99.7039 27.79 98.7241 27.79C97.4937 27.79 96.5081 28.2856 95.7676 29.2769C95.027 30.2567 94.6567 31.6523 94.6567 33.4639C94.6567 35.2868 95.0213 36.7052 95.7505 37.7192C96.491 38.7332 97.4823 39.2402 98.7241 39.2402C99.6356 39.2402 100.405 38.9554 101.031 38.3857C101.658 37.8161 102.045 37.0186 102.193 35.9932H107.184C107.104 37.4515 106.711 38.7389 106.004 39.8555C105.298 40.9606 104.318 41.8265 103.065 42.4531C101.823 43.0684 100.353 43.376 98.6558 43.376ZM110.619 43V23.8936H115.917V43H110.619ZM113.268 21.4497C112.481 21.4497 111.804 21.1877 111.234 20.6636C110.676 20.1395 110.396 19.5072 110.396 18.7666C110.396 18.026 110.676 17.3994 111.234 16.8867C111.804 16.3626 112.481 16.1006 113.268 16.1006C114.054 16.1006 114.726 16.3626 115.284 16.8867C115.854 17.3994 116.139 18.026 116.139 18.7666C116.139 19.5072 115.854 20.1395 115.284 20.6636C114.726 21.1877 114.054 21.4497 113.268 21.4497ZM125.606 43.3589C123.784 43.3589 122.268 42.8861 121.061 41.9404C119.864 40.9834 119.266 39.5592 119.266 37.668C119.266 36.2438 119.597 35.1273 120.257 34.3184C120.93 33.498 121.812 32.8999 122.906 32.5239C124 32.1366 125.174 31.8859 126.427 31.772C128.09 31.6125 129.275 31.4473 129.981 31.2764C130.699 31.0941 131.058 30.6953 131.058 30.0801V29.9946C131.058 29.2085 130.807 28.599 130.306 28.166C129.805 27.7331 129.081 27.5166 128.136 27.5166C127.19 27.5166 126.415 27.7217 125.812 28.1318C125.219 28.542 124.826 29.0661 124.632 29.7041L119.813 28.9351C120.269 27.2716 121.226 25.9785 122.684 25.0557C124.154 24.1214 125.977 23.6543 128.153 23.6543C129.566 23.6543 130.893 23.8765 132.135 24.3208C133.388 24.7651 134.402 25.4658 135.177 26.4229C135.951 27.3685 136.339 28.599 136.339 30.1143V43H131.332V40.334H131.178C130.711 41.234 130.016 41.9632 129.093 42.5215C128.181 43.0798 127.019 43.3589 125.606 43.3589ZM124.308 37.4971C124.308 38.2262 124.57 38.7788 125.094 39.1548C125.629 39.5194 126.301 39.7017 127.11 39.7017C128.272 39.7017 129.224 39.3656 129.964 38.6934C130.716 38.0212 131.092 37.1838 131.092 36.1812V34.1475C130.887 34.2842 130.562 34.4095 130.118 34.5234C129.685 34.6374 129.224 34.7342 128.734 34.814C128.244 34.8823 127.805 34.945 127.418 35.002C126.484 35.1387 125.732 35.4064 125.162 35.8052C124.592 36.1925 124.308 36.7565 124.308 37.4971Z" fill="#E8E8E8"/>
</g>
<defs>
<filter id="filter0_d_143_5" x="139" y="16" width="38" height="38" filterUnits="userSpaceOnUse" color-interpolation-filters="sRGB">
<feFlood flood-opacity="0" result="BackgroundImageFix"/>
<feColorMatrix in="SourceAlpha" type="matrix" values="0 0 0 0 0 0 0 0 0 0 0 0 0 0 0 0 0 0 127 0" result="hardAlpha"/>
<feOffset dy="4"/>
<feGaussianBlur stdDeviation="2"/>
<feComposite in2="hardAlpha" operator="out"/>
<feColorMatrix type="matrix" values="0 0 0 0 0 0 0 0 0 0 0 0 0 0 0 0 0 0 0.25 0"/>
<feBlend mode="normal" in2="BackgroundImageFix" result="effect1_dropShadow_143_5"/>
<feBlend mode="normal" in="SourceGraphic" in2="effect1_dropShadow_143_5" result="shape"/>
</filter>
<filter id="filter1_d_143_5" x="1.875" y="16.1006" width="138.464" height="35.2754" filterUnits="userSpaceOnUse" color-interpolation-filters="sRGB">
<feFlood flood-opacity="0" result="BackgroundImageFix"/>
<feColorMatrix in="SourceAlpha" type="matrix" values="0 0 0 0 0 0 0 0 0 0 0 0 0 0 0 0 0 0 127 0" result="hardAlpha"/>
<feOffset dy="4"/>
<feGaussianBlur stdDeviation="2"/>
<feComposite in2="hardAlpha" operator="out"/>
<feColorMatrix type="matrix" values="0 0 0 0 0 0 0 0 0 0 0 0 0 0 0 0 0 0 0.25 0"/>
<feBlend mode="normal" in2="BackgroundImageFix" result="effect1_dropShadow_143_5"/>
<feBlend mode="normal" in="SourceGraphic" in2="effect1_dropShadow_143_5" result="shape"/>
</filter>
</defs>
</svg>
